<svg width="30" height="30" viewBox="0 0 30 30" fill="none" xmlns="http://www.w3.org/2000/svg">
<g clip-path="url(#clip0_756_1180)">
<g clip-path="url(#clip1_756_1180)">
<g filter="url(#filter0_d_756_1180)">
<path d="M15 28C22.732 28 29 21.732 29 14C29 6.26801 22.732 0 15 0C7.26801 0 1 6.26801 1 14C1 21.732 7.26801 28 15 28Z" fill="black"/>
</g>
<path d="M15 28C22.732 28 29 21.732 29 14C29 6.26801 22.732 0 15 0C7.26801 0 1 6.26801 1 14C1 21.732 7.26801 28 15 28Z" fill="#3CC8C8"/>
<path style="mix-blend-mode:soft-light" d="M15 28C22.732 28 29 21.732 29 14C29 6.26801 22.732 0 15 0C7.26801 0 1 6.26801 1 14C1 21.732 7.26801 28 15 28Z" fill="url(#paint0_linear_756_1180)"/>
<path d="M14.5 27C21.9558 27 28 20.9558 28 13.5C28 6.04416 21.9558 0 14.5 0C7.04416 0 1 6.04416 1 13.5C1 20.9558 7.04416 27 14.5 27Z" stroke="black" stroke-opacity="0.097" stroke-width="0.9375"/>
<g filter="url(#filter1_d_756_1180)">
<path d="M15.2424 5.05664C15.6999 4.82186 16.2586 5.36461 16.016 5.8123C15.8737 6.1773 15.3379 6.27426 15.0648 5.99575C14.7754 5.72961 14.8699 5.20112 15.2424 5.05568V5.05664ZM10.3192 5.57562C10.5971 5.46346 10.9495 5.7125 10.9208 6.01001C10.9495 6.33129 10.5484 6.56892 10.2647 6.41588C9.88939 6.27331 9.93236 5.67638 10.3192 5.57562ZM20.4025 6.42444C19.9679 6.37311 19.8992 5.70394 20.3165 5.56897C20.6412 5.41498 20.9392 5.70489 20.987 6.00621C20.9182 6.26285 20.6985 6.49858 20.4025 6.42444ZM11.4394 7.62685C11.9045 7.33884 12.5673 7.76753 12.4957 8.29697C12.4718 8.83022 11.7479 9.14009 11.3391 8.77889C10.9438 8.49563 11.0039 7.84547 11.4394 7.62685ZM18.5354 7.93292C18.7426 7.41013 19.5831 7.39302 19.8189 7.9025C20.0529 8.29887 19.7655 8.79029 19.35 8.92527C18.799 9.02602 18.2766 8.4424 18.5354 7.93292ZM14.6493 8.8958C14.6445 8.44525 15.0628 8.11067 15.4993 8.0793C15.7896 8.13633 16.1048 8.25705 16.2289 8.54316C16.461 8.93858 16.2547 9.48132 15.8374 9.66287C15.6464 9.76743 15.4191 9.72846 15.2109 9.7161C14.8928 9.56402 14.6245 9.2627 14.6493 8.8958ZM7.32797 9.55166C7.75296 9.29502 8.32598 9.76078 8.16458 10.2132C8.07672 10.6039 7.53998 10.7626 7.23342 10.5136C6.90584 10.2798 6.95741 9.71801 7.32892 9.55071L7.32797 9.55166ZM23.0499 9.54881C23.4099 9.27506 24.0049 9.58968 23.961 10.0345C23.9858 10.4404 23.471 10.7474 23.1138 10.5383C22.7204 10.3644 22.6793 9.77123 23.0499 9.54976V9.54881ZM16.7084 10.3577C17.3024 10.1486 18.0091 10.3986 18.3472 10.9185C18.7942 11.5525 18.5573 12.5182 17.863 12.8823C17.1448 13.3129 16.0952 12.9488 15.8288 12.1618C15.5279 11.4584 15.9673 10.5782 16.7074 10.3577H16.7084ZM13.2196 10.4271C13.8786 10.1229 14.7658 10.3777 15.0839 11.0373C15.4582 11.6799 15.1689 12.5743 14.4994 12.9061C13.8289 13.2796 12.8825 12.9964 12.5587 12.3072C12.1949 11.64 12.5177 10.7341 13.2196 10.4271ZM9.72703 11.5962C9.77765 11.1809 10.1778 10.91 10.5818 10.8814C11.0173 10.9337 11.3649 11.2645 11.4127 11.696C11.384 12.1238 11.0469 12.5401 10.5847 12.5382C10.0756 12.581 9.62961 12.0848 9.72703 11.5962ZM20.0434 10.9727C20.5658 10.6752 21.2907 11.1077 21.2677 11.6951C21.3031 12.3177 20.5008 12.7559 19.9813 12.3909C19.4408 12.0867 19.4828 11.2312 20.0434 10.9727ZM11.8014 13.1656C12.4107 13.0011 13.1098 13.2825 13.4087 13.8319C13.7363 14.3851 13.6026 15.1531 13.0935 15.5599C12.4393 16.155 11.235 15.9154 10.8874 15.1037C10.4872 14.3594 10.9734 13.3614 11.8004 13.1646L11.8014 13.1656ZM18.4169 13.1627C19.01 12.9964 19.7072 13.2197 20.0262 13.7492C20.4483 14.3547 20.2468 15.2586 19.6193 15.6483C18.9604 16.1017 17.9423 15.8641 17.5794 15.155C17.1401 14.4221 17.5822 13.3861 18.4169 13.1627ZM7.87329 13.8528C8.40048 13.6579 8.98496 14.2273 8.77103 14.7396C8.64115 15.2054 7.96975 15.3784 7.62307 15.0343C7.21718 14.7111 7.36712 13.9935 7.87329 13.8528ZM22.1693 14.5961C22.1594 14.3869 22.2329 14.1822 22.3738 14.0266C22.5148 13.871 22.7117 13.7771 22.9219 13.7653C23.2829 13.8224 23.6343 14.1075 23.6057 14.4925C23.6391 15.001 23.0136 15.3461 22.5704 15.1075C22.3632 15.0039 22.2572 14.7957 22.1693 14.5961ZM5.28036 14.1056C5.59743 13.9697 5.98995 14.2387 5.91737 14.5837C5.90018 14.9744 5.31092 15.1255 5.09508 14.7986C4.90407 14.5714 5.01868 14.2225 5.28036 14.1047V14.1056ZM25.2875 14.0971C25.511 13.9421 25.8701 14.0533 25.958 14.309C26.1079 14.5885 25.8328 14.9706 25.5119 14.924C25.0612 14.9639 24.916 14.2919 25.2875 14.0971ZM13.5243 15.9725C14.359 15.7605 15.2567 16.442 15.2624 17.2842C15.3159 18.1349 14.4316 18.8887 13.5778 18.6929C12.9169 18.5883 12.3983 17.9648 12.4202 17.3117C12.4183 16.6863 12.8997 16.1046 13.5243 15.9725ZM16.8306 15.9715C17.6777 15.7396 18.6022 16.4335 18.5889 17.2946C18.6337 18.1292 17.7771 18.8582 16.9405 18.6919C16.1525 18.593 15.5719 17.7461 15.7915 16.9971C15.9023 16.499 16.3283 16.0941 16.8306 15.9706V15.9715ZM10.4548 16.4895C11.0412 16.3916 11.5913 17.0313 11.3535 17.5769C11.1796 18.1587 10.3163 18.3155 9.93427 17.8412C9.48731 17.3849 9.82158 16.5523 10.4548 16.4895ZM20.1523 16.5152C20.6756 16.3004 21.3174 16.7433 21.2773 17.2994C21.2983 17.9106 20.5056 18.3326 19.9947 17.9752C19.415 17.6549 19.521 16.711 20.1523 16.5152ZM22.8627 19.1767C22.6583 18.8031 23.0298 18.3079 23.4548 18.3773C23.6649 18.3735 23.8129 18.536 23.9476 18.6729C23.9753 18.8944 24.0221 19.1586 23.8339 19.3288C23.5789 19.6453 23.0011 19.555 22.8627 19.1767ZM7.32606 18.4809C7.7224 18.2233 8.29256 18.6083 8.20278 19.0607C8.15503 19.4628 7.63931 19.6919 7.30027 19.4637C6.93544 19.2575 6.94881 18.6691 7.32606 18.4809ZM15.1507 19.3202C15.6693 19.0968 16.3302 19.5388 16.2805 20.0977C16.3187 20.7156 15.5022 21.1433 14.995 20.7726C14.4316 20.4542 14.5261 19.517 15.1507 19.3202ZM11.5273 20.1481C11.9685 19.9209 12.5606 20.3135 12.5205 20.7983C12.5339 21.1956 12.1385 21.534 11.7374 21.475C11.406 21.4684 11.1902 21.1766 11.0832 20.9C11.0889 20.5987 11.2159 20.2631 11.5273 20.1491V20.1481ZM18.8677 20.1557C19.3223 19.8801 19.9679 20.2755 19.925 20.7926C19.9364 21.3344 19.2068 21.6803 18.7837 21.3249C18.3749 21.0464 18.4246 20.3772 18.8677 20.1557ZM20.1446 23.2449C19.9421 22.9464 20.18 22.5862 20.5075 22.5178C20.7721 22.57 21.0519 22.7649 20.9956 23.0634C20.9574 23.4692 20.3519 23.5928 20.1446 23.2459V23.2449ZM10.0107 22.9854C10.0909 22.7478 10.2857 22.513 10.5713 22.5748C10.9867 22.6033 11.1099 23.2173 10.7461 23.4065C10.4194 23.6223 10.0393 23.3267 10.0107 22.9854ZM14.9005 23.2582C14.9798 22.9065 15.4429 22.7364 15.7486 22.9227C15.951 23.0082 16.0102 23.2288 16.0618 23.417C16.0341 23.5149 16.0093 23.6137 15.9854 23.7116C15.8603 23.8561 15.6989 24.0015 15.4907 23.9968C15.1039 24.0415 14.7544 23.6128 14.8995 23.2582H14.9005Z" fill="black"/>
</g>
<path d="M15.2424 5.05664C15.6999 4.82186 16.2586 5.36461 16.016 5.8123C15.8737 6.1773 15.3379 6.27426 15.0648 5.99575C14.7754 5.72961 14.8699 5.20112 15.2424 5.05568V5.05664ZM10.3192 5.57562C10.5971 5.46346 10.9495 5.7125 10.9208 6.01001C10.9495 6.33129 10.5484 6.56892 10.2647 6.41588C9.88939 6.27331 9.93236 5.67638 10.3192 5.57562ZM20.4025 6.42444C19.9679 6.37311 19.8992 5.70394 20.3165 5.56897C20.6412 5.41498 20.9392 5.70489 20.987 6.00621C20.9182 6.26285 20.6985 6.49858 20.4025 6.42444ZM11.4394 7.62685C11.9045 7.33884 12.5673 7.76753 12.4957 8.29697C12.4718 8.83022 11.7479 9.14009 11.3391 8.77889C10.9438 8.49563 11.0039 7.84547 11.4394 7.62685ZM18.5354 7.93292C18.7426 7.41013 19.5831 7.39302 19.8189 7.9025C20.0529 8.29887 19.7655 8.79029 19.35 8.92527C18.799 9.02602 18.2766 8.4424 18.5354 7.93292ZM14.6493 8.8958C14.6445 8.44525 15.0628 8.11067 15.4993 8.0793C15.7896 8.13633 16.1048 8.25705 16.2289 8.54316C16.461 8.93858 16.2547 9.48132 15.8374 9.66287C15.6464 9.76743 15.4191 9.72846 15.2109 9.7161C14.8928 9.56402 14.6245 9.2627 14.6493 8.8958ZM7.32797 9.55166C7.75296 9.29502 8.32598 9.76078 8.16458 10.2132C8.07672 10.6039 7.53998 10.7626 7.23342 10.5136C6.90584 10.2798 6.95741 9.71801 7.32892 9.55071L7.32797 9.55166ZM23.0499 9.54881C23.4099 9.27506 24.0049 9.58968 23.961 10.0345C23.9858 10.4404 23.471 10.7474 23.1138 10.5383C22.7204 10.3644 22.6793 9.77123 23.0499 9.54976V9.54881ZM16.7084 10.3577C17.3024 10.1486 18.0091 10.3986 18.3472 10.9185C18.7942 11.5525 18.5573 12.5182 17.863 12.8823C17.1448 13.3129 16.0952 12.9488 15.8288 12.1618C15.5279 11.4584 15.9673 10.5782 16.7074 10.3577H16.7084ZM13.2196 10.4271C13.8786 10.1229 14.7658 10.3777 15.0839 11.0373C15.4582 11.6799 15.1689 12.5743 14.4994 12.9061C13.8289 13.2796 12.8825 12.9964 12.5587 12.3072C12.1949 11.64 12.5177 10.7341 13.2196 10.4271ZM9.72703 11.5962C9.77765 11.1809 10.1778 10.91 10.5818 10.8814C11.0173 10.9337 11.3649 11.2645 11.4127 11.696C11.384 12.1238 11.0469 12.5401 10.5847 12.5382C10.0756 12.581 9.62961 12.0848 9.72703 11.5962ZM20.0434 10.9727C20.5658 10.6752 21.2907 11.1077 21.2677 11.6951C21.3031 12.3177 20.5008 12.7559 19.9813 12.3909C19.4408 12.0867 19.4828 11.2312 20.0434 10.9727ZM11.8014 13.1656C12.4107 13.0011 13.1098 13.2825 13.4087 13.8319C13.7363 14.3851 13.6026 15.1531 13.0935 15.5599C12.4393 16.155 11.235 15.9154 10.8874 15.1037C10.4872 14.3594 10.9734 13.3614 11.8004 13.1646L11.8014 13.1656ZM18.4169 13.1627C19.01 12.9964 19.7072 13.2197 20.0262 13.7492C20.4483 14.3547 20.2468 15.2586 19.6193 15.6483C18.9604 16.1017 17.9423 15.8641 17.5794 15.155C17.1401 14.4221 17.5822 13.3861 18.4169 13.1627ZM7.87329 13.8528C8.40048 13.6579 8.98496 14.2273 8.77103 14.7396C8.64115 15.2054 7.96975 15.3784 7.62307 15.0343C7.21718 14.7111 7.36712 13.9935 7.87329 13.8528ZM22.1693 14.5961C22.1594 14.3869 22.2329 14.1822 22.3738 14.0266C22.5148 13.871 22.7117 13.7771 22.9219 13.7653C23.2829 13.8224 23.6343 14.1075 23.6057 14.4925C23.6391 15.001 23.0136 15.3461 22.5704 15.1075C22.3632 15.0039 22.2572 14.7957 22.1693 14.5961ZM5.28036 14.1056C5.59743 13.9697 5.98995 14.2387 5.91737 14.5837C5.90018 14.9744 5.31092 15.1255 5.09508 14.7986C4.90407 14.5714 5.01868 14.2225 5.28036 14.1047V14.1056ZM25.2875 14.0971C25.511 13.9421 25.8701 14.0533 25.958 14.309C26.1079 14.5885 25.8328 14.9706 25.5119 14.924C25.0612 14.9639 24.916 14.2919 25.2875 14.0971ZM13.5243 15.9725C14.359 15.7605 15.2567 16.442 15.2624 17.2842C15.3159 18.1349 14.4316 18.8887 13.5778 18.6929C12.9169 18.5883 12.3983 17.9648 12.4202 17.3117C12.4183 16.6863 12.8997 16.1046 13.5243 15.9725ZM16.8306 15.9715C17.6777 15.7396 18.6022 16.4335 18.5889 17.2946C18.6337 18.1292 17.7771 18.8582 16.9405 18.6919C16.1525 18.593 15.5719 17.7461 15.7915 16.9971C15.9023 16.499 16.3283 16.0941 16.8306 15.9706V15.9715ZM10.4548 16.4895C11.0412 16.3916 11.5913 17.0313 11.3535 17.5769C11.1796 18.1587 10.3163 18.3155 9.93427 17.8412C9.48731 17.3849 9.82158 16.5523 10.4548 16.4895ZM20.1523 16.5152C20.6756 16.3004 21.3174 16.7433 21.2773 17.2994C21.2983 17.9106 20.5056 18.3326 19.9947 17.9752C19.415 17.6549 19.521 16.711 20.1523 16.5152ZM22.8627 19.1767C22.6583 18.8031 23.0298 18.3079 23.4548 18.3773C23.6649 18.3735 23.8129 18.536 23.9476 18.6729C23.9753 18.8944 24.0221 19.1586 23.8339 19.3288C23.5789 19.6453 23.0011 19.555 22.8627 19.1767ZM7.32606 18.4809C7.7224 18.2233 8.29256 18.6083 8.20278 19.0607C8.15503 19.4628 7.63931 19.6919 7.30027 19.4637C6.93544 19.2575 6.94881 18.6691 7.32606 18.4809ZM15.1507 19.3202C15.6693 19.0968 16.3302 19.5388 16.2805 20.0977C16.3187 20.7156 15.5022 21.1433 14.995 20.7726C14.4316 20.4542 14.5261 19.517 15.1507 19.3202ZM11.5273 20.1481C11.9685 19.9209 12.5606 20.3135 12.5205 20.7983C12.5339 21.1956 12.1385 21.534 11.7374 21.475C11.406 21.4684 11.1902 21.1766 11.0832 20.9C11.0889 20.5987 11.2159 20.2631 11.5273 20.1491V20.1481ZM18.8677 20.1557C19.3223 19.8801 19.9679 20.2755 19.925 20.7926C19.9364 21.3344 19.2068 21.6803 18.7837 21.3249C18.3749 21.0464 18.4246 20.3772 18.8677 20.1557ZM20.1446 23.2449C19.9421 22.9464 20.18 22.5862 20.5075 22.5178C20.7721 22.57 21.0519 22.7649 20.9956 23.0634C20.9574 23.4692 20.3519 23.5928 20.1446 23.2459V23.2449ZM10.0107 22.9854C10.0909 22.7478 10.2857 22.513 10.5713 22.5748C10.9867 22.6033 11.1099 23.2173 10.7461 23.4065C10.4194 23.6223 10.0393 23.3267 10.0107 22.9854ZM14.9005 23.2582C14.9798 22.9065 15.4429 22.7364 15.7486 22.9227C15.951 23.0082 16.0102 23.2288 16.0618 23.417C16.0341 23.5149 16.0093 23.6137 15.9854 23.7116C15.8603 23.8561 15.6989 24.0015 15.4907 23.9968C15.1039 24.0415 14.7544 23.6128 14.8995 23.2582H14.9005Z" fill="white"/>
</g>
</g>
<defs>
<filter id="filter0_d_756_1180" x="0.0625" y="-0.46875" width="29.875" height="29.875" filterUnits="userSpaceOnUse" color-interpolation-filters="sRGB">
<feFlood flood-opacity="0" result="BackgroundImageFix"/>
<feColorMatrix in="SourceAlpha" type="matrix" values="0 0 0 0 0 0 0 0 0 0 0 0 0 0 0 0 0 0 127 0" result="hardAlpha"/>
<feOffset dy="0.46875"/>
<feGaussianBlur stdDeviation="0.46875"/>
<feComposite in2="hardAlpha" operator="out"/>
<feColorMatrix type="matrix" values="0 0 0 0 0 0 0 0 0 0 0 0 0 0 0 0 0 0 0.199474 0"/>
<feBlend mode="normal" in2="BackgroundImageFix" result="effect1_dropShadow_756_1180"/>
<feBlend mode="normal" in="SourceGraphic" in2="effect1_dropShadow_756_1180" result="shape"/>
</filter>
<filter id="filter1_d_756_1180" x="4.0625" y="4.53125" width="22.875" height="20.875" filterUnits="userSpaceOnUse" color-interpolation-filters="sRGB">
<feFlood flood-opacity="0" result="BackgroundImageFix"/>
<feColorMatrix in="SourceAlpha" type="matrix" values="0 0 0 0 0 0 0 0 0 0 0 0 0 0 0 0 0 0 127 0" result="hardAlpha"/>
<feOffset dy="0.46875"/>
<feGaussianBlur stdDeviation="0.46875"/>
<feColorMatrix type="matrix" values="0 0 0 0 0 0 0 0 0 0 0 0 0 0 0 0 0 0 0.204257 0"/>
<feBlend mode="normal" in2="BackgroundImageFix" result="effect1_dropShadow_756_1180"/>
<feBlend mode="normal" in="SourceGraphic" in2="effect1_dropShadow_756_1180" result="shape"/>
</filter>
<linearGradient id="paint0_linear_756_1180" x1="1401" y1="0" x2="1401" y2="2800" gradientUnits="userSpaceOnUse">
<stop stop-color="white" stop-opacity="0.5"/>
<stop offset="1" stop-opacity="0.5"/>
</linearGradient>
<clipPath id="clip0_756_1180">
<rect width="30" height="30" fill="white"/>
</clipPath>
<clipPath id="clip1_756_1180">
<rect width="30" height="30" fill="white"/>
</clipPath>
</defs>
</svg>
