<svg width="32" height="32" viewBox="0 0 32 32" fill="none" xmlns="http://www.w3.org/2000/svg">
<g clip-path="url(#clip0_756_1331)">
<path d="M19.341 32C20.411 32 21.344 31.067 21.344 29.997V25.3192H22.6815C23.484 25.3192 24.0189 24.7841 24.0189 23.9817V10.6211H7.98242V23.9818C7.98242 24.7843 8.51739 25.3193 9.31985 25.3193H10.6574V29.9971C10.6574 31.0671 11.5902 32.0001 12.6604 32.0001C13.7302 32.0001 14.6632 31.0671 14.6632 29.9971V25.3193H17.3381V29.9971C17.338 31.067 18.2711 32 19.341 32Z" fill="white"/>
<path d="M27.3585 23.9818C28.4284 23.9818 29.3612 23.0489 29.3612 21.9788V12.6232C29.3612 11.559 28.4284 10.6211 27.3585 10.6211C26.2884 10.6211 25.3555 11.559 25.3555 12.6232V21.9788C25.3555 23.0488 26.2883 23.9818 27.3585 23.9818Z" fill="white"/>
<path d="M4.64146 23.9818C5.71151 23.9818 6.64445 23.0489 6.64445 21.9788V12.6232C6.64445 11.559 5.71161 10.6211 4.64146 10.6211C3.57151 10.6211 2.63867 11.559 2.63867 12.6232V21.9788C2.63867 23.0488 3.57151 23.9818 4.64146 23.9818Z" fill="white"/>
<path d="M22.4139 0.201816C22.1465 -0.067272 21.7484 -0.067272 21.481 0.201816L19.6872 1.98965L19.6045 2.0723C18.5408 1.53967 17.3483 1.27368 16.0202 1.27112C16.0137 1.27112 16.0073 1.27091 16.0008 1.27091H16.0006C15.9939 1.27091 15.9877 1.27112 15.981 1.27112C14.653 1.27368 13.4605 1.53967 12.397 2.0723L12.314 1.98965L10.5203 0.201816C10.2527 -0.067272 9.85483 -0.067272 9.58745 0.201816C9.31985 0.469409 9.31985 0.866527 9.58745 1.13391L11.3226 2.86942C10.7635 3.24272 10.2565 3.69953 9.81564 4.22201C8.76011 5.47316 8.08685 7.10147 7.99427 8.8657C7.99342 8.88407 7.99161 8.90222 7.99075 8.92059C7.98509 9.04071 7.98242 9.16148 7.98242 9.28268H24.0189C24.0189 9.16148 24.016 9.04071 24.0106 8.92059C24.0097 8.90222 24.0079 8.88407 24.0068 8.8657C23.9145 7.10147 23.241 5.47306 22.1855 4.22212C21.7448 3.69964 21.2376 3.24283 20.6785 2.86952L22.4139 1.13401C22.6815 0.866527 22.6815 0.469409 22.4139 0.201816ZM12.6578 6.94749C12.1045 6.94749 11.6559 6.4989 11.6559 5.94556C11.6559 5.39222 12.1045 4.94364 12.6578 4.94364C13.2112 4.94364 13.6598 5.39222 13.6598 5.94556C13.6598 6.4989 13.2112 6.94749 12.6578 6.94749ZM19.3435 6.94749C18.7901 6.94749 18.3416 6.4989 18.3416 5.94556C18.3416 5.39222 18.7901 4.94364 19.3435 4.94364C19.8968 4.94364 20.3454 5.39222 20.3454 5.94556C20.3454 6.4989 19.8968 6.94749 19.3435 6.94749Z" fill="white"/>
</g>
<defs>
<clipPath id="clip0_756_1331">
<rect width="32" height="32" fill="white"/>
</clipPath>
</defs>
</svg>
