<svg width="32" height="32" viewBox="0 0 32 32" fill="none" xmlns="http://www.w3.org/2000/svg">
<path d="M21.9993 0C20.2933 0.117999 18.2993 1.20999 17.1373 2.63198C16.0773 3.92198 15.2054 5.83797 15.5453 7.69995C17.4093 7.75795 19.3353 6.63996 20.4513 5.19397C21.4953 3.84798 22.2853 1.94399 21.9993 0Z" fill="white"/>
<path d="M28.7411 10.7343C27.1031 8.68027 24.8011 7.48828 22.6271 7.48828C19.7571 7.48828 18.5431 8.86227 16.5492 8.86227C14.4932 8.86227 12.9312 7.49228 10.4492 7.49228C8.0112 7.49228 5.41522 8.98227 3.76923 11.5303C1.45524 15.1182 1.85124 21.8642 5.60122 27.6102C6.94321 29.6662 8.7352 31.9781 11.0792 31.9981C13.1652 32.0181 13.7532 30.6601 16.5792 30.6461C19.4051 30.6301 19.9411 32.0161 22.0231 31.9941C24.3691 31.9761 26.2591 29.4142 27.6011 27.3582C28.5631 25.8842 28.9211 25.1422 29.6671 23.4782C24.2411 21.4122 23.3711 13.6962 28.7411 10.7343Z" fill="white"/>
</svg>
