<svg width="42" height="42" viewBox="0 0 42 42" fill="none" xmlns="http://www.w3.org/2000/svg">
<rect width="42" height="42" rx="21" fill="#202A32"/>
<path d="M13.8242 15.1234C14.0212 15.599 14.4853 15.9091 15 15.9091H20.0909V33.7273C20.0909 34.4302 20.6608 35 21.3637 35C22.0665 35 22.6364 34.4302 22.6364 33.7273V15.9091H27.7273C28.2421 15.9091 28.7062 15.599 28.9031 15.1234C29.1001 14.6478 28.9912 14.1004 28.6272 13.7364L22.2636 7.37274C22.0151 7.12422 21.6894 7 21.3637 7C21.0379 7 20.7122 7.12422 20.4637 7.37283L14.1 13.7365C13.7361 14.1005 13.6272 14.6478 13.8242 15.1234ZM21.3637 10.0726L24.6547 13.3636H18.0727L21.3637 10.0726Z" fill="#2BC69D"/>
</svg>
