<svg width="18" height="18" viewBox="0 0 18 18" fill="none" xmlns="http://www.w3.org/2000/svg">
<mask id="mask0_756_780" style="mask-type:luminance" maskUnits="userSpaceOnUse" x="0" y="0" width="18" height="18">
<path d="M18 0H0V18H18V0Z" fill="white"/>
</mask>
<g mask="url(#mask0_756_780)">
<path d="M9.125 0C7.34497 0 5.60492 0.527841 4.12487 1.51677C2.64483 2.5057 1.49128 3.91131 0.810088 5.55584C0.1289 7.20038 -0.0493301 9.00997 0.297936 10.7558C0.645203 12.5017 1.50237 14.1052 2.76104 15.364C4.01972 16.6226 5.62336 17.4798 7.36919 17.8271C9.11502 18.1744 10.9246 17.996 12.5692 17.3149C14.2137 16.6337 15.6193 15.4802 16.6083 14.0002C17.5971 12.5201 18.125 10.7801 18.125 8.99999C18.1224 6.61383 17.1734 4.32615 15.4861 2.63889C13.7988 0.951625 11.5111 0.00258075 9.125 0ZM15.0343 13.602C14.394 13.0672 13.8727 12.4046 13.5035 11.6565L14.6532 11.1968C14.8381 11.123 14.9859 10.9788 15.0644 10.7959C15.143 10.6131 15.1456 10.4065 15.0718 10.2217C14.998 10.0369 14.8537 9.88904 14.6709 9.81056C14.4881 9.73207 14.2815 9.72944 14.0967 9.80324L13.013 10.2367C12.8287 9.42202 12.8287 8.57646 13.013 7.76174L14.0967 8.19525C14.1883 8.23179 14.2861 8.24994 14.3846 8.24868C14.483 8.24743 14.5803 8.22678 14.6709 8.18792C14.7615 8.14907 14.8435 8.09275 14.9122 8.0222C14.981 7.95165 15.0352 7.86824 15.0718 7.77675C15.1083 7.68525 15.1264 7.58744 15.1252 7.48893C15.1239 7.39041 15.1033 7.29311 15.0644 7.20257C15.0256 7.11203 14.9693 7.03004 14.8987 6.96127C14.8282 6.89249 14.7447 6.83828 14.6532 6.80174L13.5035 6.34199C13.8727 5.59396 14.394 4.9313 15.0343 4.3965C16.0649 5.7091 16.625 7.32965 16.625 8.9985C16.625 10.6673 16.0649 12.2879 15.0343 13.6004V13.602ZM3.21576 4.39799C3.85595 4.93279 4.37733 5.59545 4.7465 6.3435L3.59675 6.80324C3.41197 6.87704 3.26405 7.02122 3.18557 7.20407C3.10709 7.38692 3.10446 7.59345 3.17825 7.77824C3.25205 7.96304 3.39623 8.11094 3.57908 8.18942C3.76192 8.26791 3.96846 8.27054 4.15325 8.19674L5.237 7.76325C5.32575 8.1696 5.372 8.58408 5.375 8.99999C5.372 9.41591 5.32575 9.83039 5.237 10.2367L4.15325 9.80324C4.06176 9.7667 3.96396 9.74854 3.86543 9.74979C3.76692 9.75105 3.66962 9.7717 3.57908 9.81056C3.48855 9.84942 3.40655 9.90574 3.33777 9.97629C3.269 10.0468 3.21479 10.1302 3.17825 10.2217C3.14171 10.3132 3.12355 10.411 3.12481 10.5096C3.12606 10.6081 3.14672 10.7054 3.18557 10.7959C3.22443 10.8865 3.28075 10.9684 3.3513 11.0373C3.42185 11.106 3.50525 11.1602 3.59675 11.1968L4.7465 11.6565C4.37733 12.4046 3.85595 13.0672 3.21576 13.602C2.18516 12.2894 1.62497 10.6688 1.62497 8.99999C1.62497 7.33115 2.18516 5.7106 3.21576 4.39799ZM4.25526 14.6925C5.05028 14.0075 5.69198 13.1626 6.13851 12.213L7.34676 12.6967C7.43825 12.7333 7.53605 12.7514 7.63457 12.7502C7.73308 12.7489 7.83039 12.7282 7.92092 12.6894C8.01146 12.6506 8.09346 12.5943 8.16224 12.5237C8.23101 12.4532 8.28521 12.3697 8.32175 12.2782C8.35829 12.1868 8.37646 12.0889 8.3752 11.9905C8.37394 11.8919 8.3533 11.7946 8.31444 11.704C8.27557 11.6135 8.21926 11.5316 8.1487 11.4627C8.07815 11.394 7.99476 11.3398 7.90325 11.3032L6.65376 10.8037C6.80012 10.2136 6.87441 9.60798 6.875 8.99999C6.87411 8.39327 6.79982 7.78887 6.65376 7.19999L7.90325 6.70049C8.08804 6.62669 8.23595 6.48251 8.31444 6.29967C8.39292 6.11682 8.39555 5.91028 8.32175 5.72549C8.24796 5.54071 8.10378 5.3928 7.92092 5.31432C7.73808 5.23584 7.53154 5.2332 7.34676 5.30699L6.13851 5.79074C5.69243 4.83973 5.0507 3.99356 4.25526 3.3075C5.60975 2.14141 7.33771 1.50007 9.125 1.50007C10.9123 1.50007 12.6403 2.14141 13.9948 3.3075C13.1997 3.99246 12.5581 4.83734 12.1115 5.78699L10.9033 5.30325C10.8118 5.26671 10.714 5.24855 10.6154 5.2498C10.5169 5.25106 10.4196 5.2717 10.3291 5.31057C10.2385 5.34943 10.1565 5.40574 10.0878 5.47629C10.019 5.54684 9.96479 5.63025 9.92825 5.72174C9.89171 5.81324 9.87355 5.91105 9.87481 6.00956C9.87606 6.10808 9.89672 6.20538 9.93557 6.29592C9.97443 6.38646 10.0307 6.46845 10.1013 6.53722C10.1718 6.60601 10.2553 6.66021 10.3468 6.69675L11.6 7.19999C11.305 8.3844 11.305 9.62308 11.6 10.8075L10.3505 11.307C10.1657 11.3808 10.0178 11.5249 9.93932 11.7079C9.86084 11.8907 9.85821 12.0972 9.93201 12.282C10.0058 12.4668 10.15 12.6147 10.3328 12.6931C10.5157 12.7717 10.7222 12.7743 10.907 12.7004L12.1152 12.2167C12.5618 13.1664 13.2035 14.0113 13.9985 14.6962C12.644 15.8624 10.916 16.5036 9.12876 16.5036C7.34146 16.5036 5.6135 15.8624 4.259 14.6962L4.25526 14.6925Z" fill="white"/>
</g>
</svg>
