<svg width="18" height="18" viewBox="0 0 18 18" fill="none" xmlns="http://www.w3.org/2000/svg">
<mask id="mask0_756_772" style="mask-type:luminance" maskUnits="userSpaceOnUse" x="0" y="0" width="17" height="17">
<path d="M17 0H0V17H17V0Z" fill="white"/>
</mask>
<g mask="url(#mask0_756_772)">
<path d="M8.51315 0C3.81149 0 0 3.81149 0 8.51315C0 13.2148 3.81149 17.0263 8.51315 17.0263C13.2148 17.0263 17.0262 13.2148 17.0262 8.51315C17.0262 3.81149 13.2148 0 8.51315 0ZM15.5538 7.75213L15.5502 7.74931C14.179 7.60707 12.8797 7.06519 11.8138 6.19099L13.9883 4.01641C14.8645 5.08168 15.4087 6.38054 15.5538 7.75213ZM12.9839 3.01412L10.8122 5.19224C9.93769 4.12645 9.39578 2.82712 9.25388 1.45579C10.6227 1.5999 11.9194 2.1416 12.9839 3.01412ZM7.84002 1.45224C7.98838 3.20091 8.67734 4.86007 9.81133 6.19949L8.51083 7.49999L4.03133 3.02049C5.11653 2.13035 6.4427 1.58432 7.84002 1.45224ZM3.02942 4.02246L7.50925 8.50156L6.20805 9.80276C4.86944 8.66831 3.21064 7.97904 1.46223 7.83076C1.59405 6.43367 2.13974 5.10767 3.02942 4.02246ZM1.46788 9.25099V9.24817C2.8392 9.39007 4.13853 9.93198 5.20433 10.8064L3.02975 12.9811C2.15598 11.917 1.613 10.6202 1.46788 9.25099ZM4.03414 13.9827L6.20589 11.8081C7.08041 12.8739 7.62231 14.1732 7.76422 15.5445C6.39502 15.3994 5.09827 14.8564 4.03414 13.9827ZM9.18163 15.5509C9.0335 13.8022 8.34421 12.1432 7.20963 10.8043L8.51083 9.50313L12.9903 13.9827C11.9053 14.8731 10.579 15.4192 9.18163 15.5509ZM13.9905 12.9811L9.51239 8.50156L10.8129 7.20106C12.1519 8.33479 13.8106 9.02374 15.5587 9.17237C15.4266 10.5697 14.8806 11.8958 13.9905 12.9811Z" fill="white"/>
</g>
</svg>
