<svg width="30" height="30" viewBox="0 0 30 30" fill="none" xmlns="http://www.w3.org/2000/svg">
<g clip-path="url(#clip0_756_1073)">
<g clip-path="url(#clip1_756_1073)">
<g filter="url(#filter0_d_756_1073)">
<path d="M15 28C22.732 28 29 21.732 29 14C29 6.26801 22.732 0 15 0C7.26801 0 1 6.26801 1 14C1 21.732 7.26801 28 15 28Z" fill="black"/>
</g>
<path d="M15 28C22.732 28 29 21.732 29 14C29 6.26801 22.732 0 15 0C7.26801 0 1 6.26801 1 14C1 21.732 7.26801 28 15 28Z" fill="#F7931A"/>
<path style="mix-blend-mode:soft-light" d="M15 28C22.732 28 29 21.732 29 14C29 6.26801 22.732 0 15 0C7.26801 0 1 6.26801 1 14C1 21.732 7.26801 28 15 28Z" fill="url(#paint0_linear_756_1073)"/>
<path d="M14.5 27C21.9558 27 28 20.9558 28 13.5C28 6.04416 21.9558 0 14.5 0C7.04416 0 1 6.04416 1 13.5C1 20.9558 7.04416 27 14.5 27Z" stroke="black" stroke-opacity="0.097" stroke-width="0.9375"/>
<g filter="url(#filter1_d_756_1073)">
<path d="M21.9633 12.6385C22.255 10.6422 20.7716 9.5688 18.7447 8.85257L19.4023 6.14768L17.7972 5.73813L17.1562 8.3716C16.7345 8.26302 16.3016 8.16206 15.8697 8.06111L16.5153 5.4105L14.9101 5L14.2525 7.70395C13.9032 7.62204 13.5595 7.54203 13.227 7.45631L13.2288 7.44774L11.0143 6.88105L10.587 8.63923C10.587 8.63923 11.7788 8.91924 11.7537 8.93639C12.404 9.10306 12.521 9.54404 12.5015 9.89453L11.7528 12.9756C11.7974 12.9871 11.855 13.0042 11.92 13.0299L11.75 12.9871L10.7003 17.3035C10.6204 17.5054 10.4189 17.8092 9.96371 17.694C9.98043 17.7178 8.797 17.3959 8.797 17.3959L8 19.2798L10.09 19.8141C10.4783 19.9141 10.8592 20.0188 11.2335 20.1169L10.5694 22.8523L12.1736 23.2619L12.8312 20.557C13.2697 20.6779 13.6951 20.7903 14.1113 20.897L13.4555 23.5905L15.0606 24L15.7248 21.2703C18.4632 21.8018 20.5217 21.5875 21.3883 19.0483C22.0869 17.0044 21.354 15.8244 19.9132 15.0557C20.9629 14.8081 21.7525 14.1005 21.9633 12.6385ZM18.2942 17.913C17.799 19.9579 14.441 18.8521 13.3524 18.575L14.2348 14.951C15.3235 15.23 18.8134 15.7815 18.2942 17.913ZM18.7911 12.609C18.3387 14.469 15.5446 13.5233 14.6389 13.2918L15.4378 10.006C16.3434 10.2374 19.263 10.6689 18.7911 12.609Z" fill="black"/>
</g>
<path d="M21.9633 12.6385C22.255 10.6422 20.7716 9.5688 18.7447 8.85257L19.4023 6.14768L17.7972 5.73813L17.1562 8.3716C16.7345 8.26302 16.3016 8.16206 15.8697 8.06111L16.5153 5.4105L14.9101 5L14.2525 7.70395C13.9032 7.62204 13.5595 7.54203 13.227 7.45631L13.2288 7.44774L11.0143 6.88105L10.587 8.63923C10.587 8.63923 11.7788 8.91924 11.7537 8.93639C12.404 9.10306 12.521 9.54404 12.5015 9.89453L11.7528 12.9756C11.7974 12.9871 11.855 13.0042 11.92 13.0299L11.75 12.9871L10.7003 17.3035C10.6204 17.5054 10.4189 17.8092 9.96371 17.694C9.98043 17.7178 8.797 17.3959 8.797 17.3959L8 19.2798L10.09 19.8141C10.4783 19.9141 10.8592 20.0188 11.2335 20.1169L10.5694 22.8523L12.1736 23.2619L12.8312 20.557C13.2697 20.6779 13.6951 20.7903 14.1113 20.897L13.4555 23.5905L15.0606 24L15.7248 21.2703C18.4632 21.8018 20.5217 21.5875 21.3883 19.0483C22.0869 17.0044 21.354 15.8244 19.9132 15.0557C20.9629 14.8081 21.7525 14.1005 21.9633 12.6385ZM18.2942 17.913C17.799 19.9579 14.441 18.8521 13.3524 18.575L14.2348 14.951C15.3235 15.23 18.8134 15.7815 18.2942 17.913ZM18.7911 12.609C18.3387 14.469 15.5446 13.5233 14.6389 13.2918L15.4378 10.006C16.3434 10.2374 19.263 10.6689 18.7911 12.609Z" fill="white"/>
</g>
</g>
<defs>
<filter id="filter0_d_756_1073" x="0.0625" y="-0.46875" width="29.875" height="29.875" filterUnits="userSpaceOnUse" color-interpolation-filters="sRGB">
<feFlood flood-opacity="0" result="BackgroundImageFix"/>
<feColorMatrix in="SourceAlpha" type="matrix" values="0 0 0 0 0 0 0 0 0 0 0 0 0 0 0 0 0 0 127 0" result="hardAlpha"/>
<feOffset dy="0.46875"/>
<feGaussianBlur stdDeviation="0.46875"/>
<feComposite in2="hardAlpha" operator="out"/>
<feColorMatrix type="matrix" values="0 0 0 0 0 0 0 0 0 0 0 0 0 0 0 0 0 0 0.199474 0"/>
<feBlend mode="normal" in2="BackgroundImageFix" result="effect1_dropShadow_756_1073"/>
<feBlend mode="normal" in="SourceGraphic" in2="effect1_dropShadow_756_1073" result="shape"/>
</filter>
<filter id="filter1_d_756_1073" x="7.0625" y="4.53125" width="15.875" height="20.875" filterUnits="userSpaceOnUse" color-interpolation-filters="sRGB">
<feFlood flood-opacity="0" result="BackgroundImageFix"/>
<feColorMatrix in="SourceAlpha" type="matrix" values="0 0 0 0 0 0 0 0 0 0 0 0 0 0 0 0 0 0 127 0" result="hardAlpha"/>
<feOffset dy="0.46875"/>
<feGaussianBlur stdDeviation="0.46875"/>
<feColorMatrix type="matrix" values="0 0 0 0 0 0 0 0 0 0 0 0 0 0 0 0 0 0 0.204257 0"/>
<feBlend mode="normal" in2="BackgroundImageFix" result="effect1_dropShadow_756_1073"/>
<feBlend mode="normal" in="SourceGraphic" in2="effect1_dropShadow_756_1073" result="shape"/>
</filter>
<linearGradient id="paint0_linear_756_1073" x1="1401" y1="0" x2="1401" y2="2800" gradientUnits="userSpaceOnUse">
<stop stop-color="white" stop-opacity="0.5"/>
<stop offset="1" stop-opacity="0.5"/>
</linearGradient>
<clipPath id="clip0_756_1073">
<rect width="30" height="30" fill="white"/>
</clipPath>
<clipPath id="clip1_756_1073">
<rect width="30" height="30" fill="white"/>
</clipPath>
</defs>
</svg>
