<svg width="30" height="30" viewBox="0 0 30 30" fill="none" xmlns="http://www.w3.org/2000/svg">
<g clip-path="url(#clip0_756_1086)">
<g clip-path="url(#clip1_756_1086)">
<g filter="url(#filter0_d_756_1086)">
<path d="M15 28C22.732 28 29 21.732 29 14C29 6.26801 22.732 0 15 0C7.26801 0 1 6.26801 1 14C1 21.732 7.26801 28 15 28Z" fill="black"/>
</g>
<path d="M15 28C22.732 28 29 21.732 29 14C29 6.26801 22.732 0 15 0C7.26801 0 1 6.26801 1 14C1 21.732 7.26801 28 15 28Z" fill="#8DC351"/>
<path style="mix-blend-mode:soft-light" d="M15 28C22.732 28 29 21.732 29 14C29 6.26801 22.732 0 15 0C7.26801 0 1 6.26801 1 14C1 21.732 7.26801 28 15 28Z" fill="url(#paint0_linear_756_1086)"/>
<path d="M14.5 27C21.9558 27 28 20.9558 28 13.5C28 6.04416 21.9558 0 14.5 0C7.04416 0 1 6.04416 1 13.5C1 20.9558 7.04416 27 14.5 27Z" stroke="black" stroke-opacity="0.097" stroke-width="0.9375"/>
<g filter="url(#filter1_d_756_1086)">
<path d="M20.2882 9.30913C20.8186 10.6829 20.4796 11.7014 19.6919 12.454C21.3146 12.3816 22.5248 13.0276 22.9158 15.1569C23.4035 17.8007 21.7251 19.0421 19.0956 19.9853L19.8517 22.691L18.2606 23.1597L17.5157 20.4892C17.1033 20.6112 16.6798 20.7322 16.2414 20.8513L16.9909 23.5332L15.4027 24L14.6438 21.2895C14.2714 21.3962 13.8905 21.501 13.5051 21.6134L11.4357 22.2232L11.2063 20.1815C11.2063 20.1815 12.3887 19.8547 12.3626 19.8424C12.8131 19.709 12.8391 19.3422 12.8094 19.1259L11.614 14.8482L11.7812 14.7987C11.7134 14.8082 11.6549 14.8244 11.6103 14.8368L10.7567 11.7833C10.6035 11.4708 10.2867 11.1488 9.64215 11.3375C9.65608 11.3098 8.48763 11.6785 8.48763 11.6785L8 9.93602L10.1939 9.29198L10.1966 9.2996C10.5264 9.20243 10.8626 9.09667 11.2044 8.98807L10.4567 6.30903L12.0459 5.84125L12.7797 8.46788C13.2023 8.3345 13.6277 8.20112 14.0457 8.07727L13.3156 5.46778L14.9057 5L15.6553 7.67999C17.76 7.26079 19.5675 7.43038 20.2882 9.30913ZM19.6845 15.759C19.0928 13.6468 15.802 14.9587 14.7237 15.276L15.7268 18.8677C16.8042 18.5495 20.2501 17.7854 19.6836 15.76L19.6845 15.759ZM17.5278 10.9097C16.9891 8.98807 14.2509 10.1094 13.3537 10.3743L14.2639 13.6326C15.1621 13.3677 18.0424 12.7532 17.5278 10.9097Z" fill="black"/>
</g>
<path d="M20.2882 9.30913C20.8186 10.6829 20.4796 11.7014 19.6919 12.454C21.3146 12.3816 22.5248 13.0276 22.9158 15.1569C23.4035 17.8007 21.7251 19.0421 19.0956 19.9853L19.8517 22.691L18.2606 23.1597L17.5157 20.4892C17.1033 20.6112 16.6798 20.7322 16.2414 20.8513L16.9909 23.5332L15.4027 24L14.6438 21.2895C14.2714 21.3962 13.8905 21.501 13.5051 21.6134L11.4357 22.2232L11.2063 20.1815C11.2063 20.1815 12.3887 19.8547 12.3626 19.8424C12.8131 19.709 12.8391 19.3422 12.8094 19.1259L11.614 14.8482L11.7812 14.7987C11.7134 14.8082 11.6549 14.8244 11.6103 14.8368L10.7567 11.7833C10.6035 11.4708 10.2867 11.1488 9.64215 11.3375C9.65608 11.3098 8.48763 11.6785 8.48763 11.6785L8 9.93602L10.1939 9.29198L10.1966 9.2996C10.5264 9.20243 10.8626 9.09667 11.2044 8.98807L10.4567 6.30903L12.0459 5.84125L12.7797 8.46788C13.2023 8.3345 13.6277 8.20112 14.0457 8.07727L13.3156 5.46778L14.9057 5L15.6553 7.67999C17.76 7.26079 19.5675 7.43038 20.2882 9.30913ZM19.6845 15.759C19.0928 13.6468 15.802 14.9587 14.7237 15.276L15.7268 18.8677C16.8042 18.5495 20.2501 17.7854 19.6836 15.76L19.6845 15.759ZM17.5278 10.9097C16.9891 8.98807 14.2509 10.1094 13.3537 10.3743L14.2639 13.6326C15.1621 13.3677 18.0424 12.7532 17.5278 10.9097Z" fill="white"/>
</g>
</g>
<defs>
<filter id="filter0_d_756_1086" x="0.0625" y="-0.46875" width="29.875" height="29.875" filterUnits="userSpaceOnUse" color-interpolation-filters="sRGB">
<feFlood flood-opacity="0" result="BackgroundImageFix"/>
<feColorMatrix in="SourceAlpha" type="matrix" values="0 0 0 0 0 0 0 0 0 0 0 0 0 0 0 0 0 0 127 0" result="hardAlpha"/>
<feOffset dy="0.46875"/>
<feGaussianBlur stdDeviation="0.46875"/>
<feComposite in2="hardAlpha" operator="out"/>
<feColorMatrix type="matrix" values="0 0 0 0 0 0 0 0 0 0 0 0 0 0 0 0 0 0 0.199474 0"/>
<feBlend mode="normal" in2="BackgroundImageFix" result="effect1_dropShadow_756_1086"/>
<feBlend mode="normal" in="SourceGraphic" in2="effect1_dropShadow_756_1086" result="shape"/>
</filter>
<filter id="filter1_d_756_1086" x="7.0625" y="4.53125" width="16.875" height="20.875" filterUnits="userSpaceOnUse" color-interpolation-filters="sRGB">
<feFlood flood-opacity="0" result="BackgroundImageFix"/>
<feColorMatrix in="SourceAlpha" type="matrix" values="0 0 0 0 0 0 0 0 0 0 0 0 0 0 0 0 0 0 127 0" result="hardAlpha"/>
<feOffset dy="0.46875"/>
<feGaussianBlur stdDeviation="0.46875"/>
<feColorMatrix type="matrix" values="0 0 0 0 0 0 0 0 0 0 0 0 0 0 0 0 0 0 0.204257 0"/>
<feBlend mode="normal" in2="BackgroundImageFix" result="effect1_dropShadow_756_1086"/>
<feBlend mode="normal" in="SourceGraphic" in2="effect1_dropShadow_756_1086" result="shape"/>
</filter>
<linearGradient id="paint0_linear_756_1086" x1="1401" y1="0" x2="1401" y2="2800" gradientUnits="userSpaceOnUse">
<stop stop-color="white" stop-opacity="0.5"/>
<stop offset="1" stop-opacity="0.5"/>
</linearGradient>
<clipPath id="clip0_756_1086">
<rect width="30" height="30" fill="white"/>
</clipPath>
<clipPath id="clip1_756_1086">
<rect width="30" height="30" fill="white"/>
</clipPath>
</defs>
</svg>
