<svg width="146" height="46" viewBox="0 0 146 46" fill="none" xmlns="http://www.w3.org/2000/svg">
<g clip-path="url(#clip0_756_1063)">
<g clip-path="url(#clip1_756_1063)">
<g clip-path="url(#clip2_756_1063)">
<path fill-rule="evenodd" clip-rule="evenodd" d="M39.2978 8.05803C34.2926 8.55456 29.936 9.80941 26.9121 11.6255C25.3758 12.5481 24.2764 13.4974 23.0297 14.9777C22.1506 16.0215 22.4681 15.8718 19.618 16.5852C18.6621 16.8244 17.7304 17.0618 17.5475 17.1126C16.8438 17.3083 16.4361 17.8516 14.3325 21.3978C13.7679 22.3496 13.3178 23.1404 13.3325 23.155C13.3471 23.1696 13.8463 22.9699 14.4418 22.7112C15.7432 22.146 16.3528 21.9382 17.2438 21.7562C18.7149 21.4558 19.2323 21.6609 19.2323 22.5446C19.2323 22.9222 19.4374 23.7286 19.6717 24.2722L19.8469 24.6784L19.5149 24.9608C19.3324 25.1162 19.0666 25.4525 18.9241 25.7081L18.6652 26.173L18.6376 28.1898L18.61 30.2066H20.5195C22.7856 30.2066 23.0114 30.1554 23.7471 29.4745L24.2339 29.024L24.7403 29.2273C25.2341 29.4257 25.7409 29.5407 26.583 29.6454C26.936 29.6893 27.019 29.7376 27.1398 29.9696C27.4591 30.5838 27.1121 32.2067 26.2188 34.2763C25.939 34.9244 25.7203 35.4665 25.7328 35.4809C25.7452 35.4953 26.4371 35.1089 27.2703 34.6223C30.9302 32.4845 31.6154 31.9884 31.7949 31.346C31.8434 31.1726 32.1158 30.1134 32.4002 28.9922C32.6846 27.871 32.9494 26.8727 32.9887 26.7736C33.028 26.6746 33.4723 26.2421 33.9761 25.8127C35.9069 24.1666 37.0418 22.6972 38.153 20.4044C39.641 17.3348 40.7216 12.9459 40.9385 9.09203L41 8L40.3015 8.01388C39.9174 8.02151 39.4658 8.04138 39.2978 8.05803ZM38.153 9.56114C34.5947 10.0302 31.4997 10.8844 29.0056 12.0858C26.8218 13.1378 25.6033 14.0635 24.1565 15.7698C21.6177 18.7641 20.6121 20.5643 20.5982 22.1394C20.5934 22.6777 20.7839 23.5923 20.9384 23.7736C20.9522 23.7898 21.6627 23.2525 22.5172 22.5796C23.5186 21.791 24.2275 21.2979 24.5118 21.1921C25.043 20.9945 28.6648 20.1258 28.7217 20.1823C28.8066 20.2667 27.8416 24.031 27.6085 24.5249C27.4735 24.8111 26.8482 25.6869 26.2191 26.471L25.0753 27.8966L25.3561 28.0141C25.5106 28.0786 25.9008 28.1765 26.2234 28.2315C27.6774 28.4794 29.5416 27.6281 32.2085 25.4985C34.3175 23.8144 35.3278 22.7035 36.3158 20.9823C37.504 18.9124 38.4897 16.0023 39.075 12.8369C39.2546 11.8653 39.5596 9.7375 39.5596 9.45558C39.5596 9.37299 39.6075 9.36935 38.153 9.56114ZM32.1479 12.7789C30.9673 13.0091 29.9702 13.9086 29.5735 15.1015C29.351 15.7708 29.4161 16.8099 29.7222 17.4741C30.0235 18.128 30.6643 18.7962 31.3138 19.134C31.8098 19.3919 31.8915 19.4069 32.7983 19.4069C33.6521 19.4069 33.8109 19.3819 34.2378 19.1805C35.9702 18.3631 36.6986 16.3543 35.8859 14.6352C35.4515 13.7165 34.4555 12.968 33.4148 12.7785C32.8305 12.6721 32.6961 12.6722 32.1479 12.7789ZM32.156 14.1856C31.7407 14.3425 31.2098 14.8093 31.0203 15.1841C30.7635 15.6923 30.7223 16.1079 30.8765 16.6353C31.2806 18.0173 32.8765 18.5603 34.0499 17.7151C34.5037 17.3882 34.8491 16.6947 34.8466 16.1153C34.8445 15.6388 34.6066 15.0219 34.2978 14.6926C33.8331 14.1969 32.7838 13.9485 32.156 14.1856ZM19.1886 18.0969L17.7928 18.4527L17.1603 19.405C16.8124 19.9289 16.5278 20.3893 16.5278 20.4283C16.5278 20.4672 16.675 20.4681 16.8549 20.4301C17.2715 20.3423 19.0436 20.34 19.2819 20.427C19.4415 20.4853 19.4901 20.4251 19.703 19.9066C19.9267 19.3616 20.3811 18.5161 20.7524 17.9539C20.9049 17.7229 20.9048 17.7158 20.7472 17.7282C20.6577 17.7353 19.9564 17.9011 19.1886 18.0969ZM25.9265 22.1886C25.4578 22.3022 24.9992 22.4352 24.9072 22.4841C24.5108 22.6951 20.3921 25.9885 20.2169 26.2347C19.9975 26.5428 19.9051 27.0205 19.9459 27.6354L19.9738 28.0568L22.1916 26.2262C23.4113 25.2193 24.4258 24.4117 24.4457 24.4317C24.4658 24.4516 23.6565 25.4566 22.6475 26.6649L20.8129 28.8621L21.3943 28.8882C22.4775 28.9368 22.511 28.9106 24.4432 26.496C25.3797 25.3257 26.2247 24.2356 26.3207 24.0737C26.4524 23.8518 26.9095 22.243 26.9095 22.0016C26.9095 21.9519 26.8833 21.9569 25.9265 22.1886ZM14.775 25.5875C14.3424 26.0765 13.3503 27.6249 12.8534 28.5867C12.6112 29.0554 12.0816 30.2633 11.6765 31.2708C10.58 33.9981 9.94173 35.1269 8.58747 36.734C8.17011 37.2292 7.94895 37.5574 8.01002 37.5909C8.23842 37.7166 10.4907 37.9437 11.9551 37.9888C16.4824 38.1283 20.1691 36.9593 22.7166 34.5764C23.3167 34.0152 24.2923 32.7635 24.2923 32.555C24.2923 32.5186 23.9983 32.7729 23.6389 33.1199C21.4615 35.2227 18.3543 36.3811 14.102 36.6754C13.205 36.7375 10.7674 36.6447 10.6004 36.5421C10.5241 36.4952 10.5855 36.3353 10.8198 35.9711C11.5828 34.7851 12.0121 33.7047 13.0416 30.3801C13.4729 28.9869 14.024 27.5742 14.6573 26.2381C14.9117 25.7014 15.107 25.2622 15.0912 25.2622C15.0755 25.2622 14.9333 25.4086 14.775 25.5875ZM30.8354 28.1779C30.4591 28.4468 28.6602 29.3392 28.4946 29.3392C28.4153 29.3392 28.3943 29.3911 28.4333 29.491C28.6684 30.093 28.664 31.2889 28.4231 32.1861C28.3747 32.3663 28.4482 32.3392 29.1276 31.9258C30.4812 31.1023 30.437 31.1655 30.8613 29.4476C31.0646 28.6246 31.2106 27.9532 31.1858 27.9555C31.161 27.9579 31.0033 28.058 30.8354 28.1779Z" fill="#0CC474"/>
<path fill-rule="evenodd" clip-rule="evenodd" d="M57.7835 13.4154L56.9819 13.8131V21.1965V28.5799H57.8052H58.6285L58.6292 25.398C58.6296 23.6058 58.6694 21.9702 58.7204 21.6533C58.9008 20.5317 59.4544 19.7205 60.3769 19.2258C60.8752 18.9586 61.0041 18.9289 61.7918 18.8992C62.5148 18.8719 62.7386 18.8967 63.1419 19.0484C63.8223 19.3043 64.2883 19.7353 64.6264 20.421L64.9117 20.9998L64.9376 24.7898L64.9636 28.5799H65.8322H66.7008L66.6677 24.662C66.6384 21.1951 66.6168 20.6893 66.4798 20.2679C65.858 18.3537 64.4456 17.3241 62.4418 17.3241C60.9836 17.3241 59.8577 17.8654 58.9614 18.9972L58.6306 19.415L58.6079 16.2163L58.5852 13.0177L57.7835 13.4154ZM124.342 13.4091L123.541 13.8131V21.1965V28.5799H124.364H125.187V20.7874C125.187 16.5015 125.177 12.9971 125.166 13C125.154 13.0028 124.783 13.1868 124.342 13.4091ZM119.619 14.1691L118.861 14.5553V21.5676V28.5799H119.684H120.507V21.177C120.507 17.1055 120.478 13.7761 120.442 13.7786C120.407 13.7809 120.036 13.9567 119.619 14.1691ZM49.702 17.3784C47.7085 17.7622 46.051 19.1656 45.3613 21.0535C44.8928 22.3361 44.8794 23.7795 45.3242 25.059C45.9025 26.7228 47.2903 28.0741 48.9654 28.6044C49.8645 28.889 51.5658 28.8813 52.4604 28.5886C53.2385 28.3339 54.0045 27.8551 54.6626 27.2118L55.1599 26.7258L54.9226 26.476C54.792 26.3386 54.5436 26.1132 54.3704 25.9752L54.0556 25.7242L53.6771 26.0726C51.9021 27.7063 49.6894 27.7829 48.0508 26.2673C46.4758 24.8105 46.2582 22.1544 47.5684 20.3783C48.7006 18.8437 50.7299 18.3672 52.451 19.232C52.7266 19.3705 53.1997 19.6875 53.5026 19.9365L54.0533 20.3891L54.5845 19.84L55.1157 19.2909L54.6286 18.8486C54.0068 18.2841 53.192 17.8013 52.4753 17.5727C51.9208 17.3959 50.2273 17.2771 49.702 17.3784ZM85.3515 17.447C84.4248 17.6716 83.5868 18.2343 82.956 19.0557L82.7233 19.3588L82.7223 18.4713L82.7214 17.5838H81.8547H80.9881V23.0819V28.5799H81.8503H82.7126L82.7389 24.9651C82.7648 21.4165 82.769 21.3411 82.9661 20.8526C83.2306 20.1972 83.8979 19.4752 84.52 19.1711C85.1748 18.8511 86.3543 18.7827 87.1133 19.0208C87.7985 19.2358 88.5099 19.9271 88.7977 20.6575C88.9998 21.1704 89.0028 21.2247 89.0302 24.8785L89.0581 28.5799H89.8764H90.6946L90.6933 24.7919C90.6919 20.6858 90.664 20.3787 90.207 19.4463C89.723 18.4588 88.7624 17.7101 87.6577 17.4591C86.9587 17.3002 85.9783 17.2951 85.3515 17.447ZM96.6053 17.4939C95.6526 17.7512 94.9813 18.1445 94.2404 18.8796C93.2045 19.9075 92.7745 20.975 92.7745 22.5191C92.7745 24.3735 93.5386 25.871 94.9743 26.8304C95.9019 27.4502 96.5057 27.6386 97.7347 27.6915C98.6583 27.7313 98.8176 27.7147 99.468 27.5107C100.345 27.2357 101.093 26.7563 101.747 26.0513L102.242 25.5175L102.202 26.724C102.17 27.704 102.126 28.0247 101.968 28.4315C101.682 29.1672 101.002 29.8618 100.21 30.2286C99.6132 30.5052 99.5142 30.5236 98.4431 30.5561C97.495 30.585 97.1892 30.5605 96.5829 30.4073C95.7779 30.2039 94.9695 29.8525 94.3893 29.4537L94.0073 29.1911L93.6509 29.8061C93.4549 30.1443 93.2945 30.4521 93.2945 30.49C93.2945 30.607 94.2576 31.1497 94.9411 31.4177C96.1586 31.8951 96.7594 32 98.2777 32C99.4888 32 99.7467 31.9744 100.314 31.7973C102.159 31.2222 103.212 30.1529 103.713 28.3474C103.893 27.6965 103.902 27.4791 103.934 22.6273L103.967 17.5838H103.094H102.221V18.5091V19.4345L101.668 18.8866C100.592 17.8195 99.6472 17.4085 98.1477 17.3553C97.4366 17.3301 97.0995 17.3604 96.6053 17.4939ZM110.138 17.4959C108.271 17.9848 106.893 19.4275 106.328 21.4851C106.094 22.3336 106.113 23.9181 106.368 24.8105C106.663 25.8485 107.023 26.4561 107.808 27.2452C109.002 28.4453 110.237 28.9031 112.049 28.817C113.589 28.7439 114.765 28.2338 115.784 27.1965L116.217 26.7558L115.74 26.3296C115.478 26.0952 115.231 25.9017 115.19 25.8996C115.149 25.8975 114.923 26.0691 114.688 26.2808C113.806 27.0725 112.786 27.4109 111.456 27.3525C110.803 27.3239 110.574 27.2727 110.097 27.0496C108.922 26.4998 108.084 25.3921 107.896 24.1393L107.835 23.7313H112.221H116.607L116.607 23.1468C116.605 21.9463 116.242 20.5571 115.692 19.6536C114.57 17.8073 112.306 16.928 110.138 17.4959ZM71.7736 17.5515C71.2001 17.6745 69.8859 18.1168 69.6472 18.2674C69.4744 18.3763 69.9656 19.6913 70.1546 19.6256C70.2263 19.6007 70.6189 19.4635 71.0269 19.3206C72.0074 18.9776 73.2211 18.8279 74.0399 18.9494C75.6318 19.1855 76.4818 20.0446 76.6228 21.5604L76.6821 22.1984L76.4301 22.1341C75.2148 21.8243 74.904 21.789 73.4049 21.7907C71.9599 21.7922 71.7954 21.8089 71.1738 22.0165C69.6428 22.5278 68.8187 23.4147 68.5991 24.7876C68.4299 25.8461 68.7677 26.9246 69.4915 27.6358C70.5478 28.6739 72.3539 29.0901 73.9894 28.6722C74.8989 28.4398 75.4751 28.1258 76.1106 27.5161L76.6548 26.994V27.7869V28.5799H77.4781H78.3015L78.3 24.9218C78.2983 20.9767 78.2603 20.5446 77.8325 19.611C77.5648 19.0269 76.8791 18.2923 76.3155 17.9858C75.5826 17.5873 74.6889 17.4097 73.456 17.4178C72.8541 17.4216 72.0998 17.4816 71.7736 17.5515ZM126.96 17.7457C126.989 17.8346 128.105 20.299 129.442 23.2221L131.873 28.5367L131.612 29.0688C131.29 29.7254 130.896 30.1828 130.464 30.4033C130.023 30.6278 129.047 30.6267 128.394 30.4008C128.132 30.3101 127.894 30.2626 127.867 30.2953C127.719 30.4706 127.358 31.4756 127.42 31.5383C127.461 31.5788 127.726 31.6987 128.009 31.8048C128.44 31.9663 128.7 31.9979 129.607 31.9989C130.618 31.9999 130.723 31.9839 131.183 31.7586C131.801 31.4553 132.499 30.7139 132.917 29.9158C133.167 29.4399 135.545 23.6783 137.695 18.3414L138 17.5838H137.11H136.22L134.547 21.9347C133.627 24.3276 132.831 26.3715 132.779 26.4765C132.695 26.6439 132.438 26.1069 130.7 22.1257L128.717 17.5838H127.813C126.969 17.5838 126.912 17.5946 126.96 17.7457ZM110.745 18.7994C110.284 18.8905 109.591 19.242 109.207 19.5789C108.595 20.1159 108.032 21.1817 107.889 22.0768L107.832 22.4325H111.353H114.874V22.2342C114.874 22.1252 114.816 21.8128 114.745 21.5401C114.228 19.5575 112.589 18.4347 110.745 18.7994ZM97.3678 18.8911C95.9073 19.176 94.6984 20.4691 94.5224 21.9347C94.3627 23.2635 94.7282 24.3802 95.589 25.1935C96.2825 25.8488 97.0184 26.1673 97.9631 26.2211C98.8671 26.2727 99.4594 26.1594 100.206 25.7923C102.469 24.6792 102.998 21.7611 101.252 20.0172C100.283 19.0493 98.7841 18.6147 97.3678 18.8911ZM72.557 23.133C71.1835 23.3338 70.363 24.0738 70.2684 25.197C70.2341 25.6048 70.2657 25.7529 70.473 26.155C70.9264 27.0343 71.7622 27.4544 73.0582 27.4544C74.5493 27.4544 75.8072 26.7827 76.376 25.6829C76.5641 25.3193 76.6078 25.1008 76.6376 24.3735L76.6734 23.5006L75.9879 23.3526C74.6748 23.0692 73.5056 22.9944 72.557 23.133Z" fill="#FAFAFA"/>
</g>
</g>
</g>
<defs>
<clipPath id="clip0_756_1063">
<rect width="130" height="30" fill="white" transform="translate(8 8)"/>
</clipPath>
<clipPath id="clip1_756_1063">
<rect width="130" height="30" fill="white" transform="translate(8 8)"/>
</clipPath>
<clipPath id="clip2_756_1063">
<rect width="130" height="30" fill="white" transform="translate(8 8)"/>
</clipPath>
</defs>
</svg>
