<svg width="24" height="24" viewBox="0 0 24 24" fill="none" xmlns="http://www.w3.org/2000/svg">
<path d="M19.68 19.2H4.32C3.52608 19.2 2.88 19.8461 2.88 20.64C2.88 21.434 3.52608 22.08 4.32 22.08H19.68C20.4739 22.08 21.12 21.434 21.12 20.64C21.12 19.8461 20.4739 19.2 19.68 19.2ZM24 6.72004C24 7.70498 23.2512 8.5095 22.2951 8.6189L20.4461 18.24H3.55392L1.70494 8.6189C0.748781 8.5095 0 7.70498 0 6.72004C0 5.66118 0.861141 4.80004 1.92 4.80004C2.97886 4.80004 3.84 5.66118 3.84 6.72004C3.84 7.43142 3.44639 8.04675 2.86945 8.3789C3.97922 11.0093 5.71969 12.6231 7.33252 12.4771C9.13345 12.3303 10.6023 10.201 11.4125 6.63843C10.3738 6.37537 9.60005 5.43937 9.60005 4.32004C9.60005 2.9962 10.6762 1.92004 12 1.92004C13.3239 1.92004 14.4 2.9962 14.4 4.32004C14.4 5.43942 13.6263 6.37542 12.5876 6.63843C13.3978 10.201 14.8666 12.3303 16.6676 12.4771C18.2871 12.6231 20.0199 11.0093 21.1306 8.3789C20.5537 8.04675 20.1601 7.43137 20.1601 6.72004C20.1601 5.66118 21.0212 4.80004 22.0801 4.80004C23.1389 4.80004 24 5.66118 24 6.72004Z" fill="#2BC69D"/>
</svg>
