<svg width="30" height="30" viewBox="0 0 30 30" fill="none" xmlns="http://www.w3.org/2000/svg">
<g clip-path="url(#clip0_756_1099)">
<g clip-path="url(#clip1_756_1099)">
<g filter="url(#filter0_d_756_1099)">
<path d="M15 28C22.732 28 29 21.732 29 14C29 6.26801 22.732 0 15 0C7.26801 0 1 6.26801 1 14C1 21.732 7.26801 28 15 28Z" fill="black"/>
</g>
<path d="M15 28C22.732 28 29 21.732 29 14C29 6.26801 22.732 0 15 0C7.26801 0 1 6.26801 1 14C1 21.732 7.26801 28 15 28Z" fill="#627EEA"/>
<path style="mix-blend-mode:soft-light" d="M15 28C22.732 28 29 21.732 29 14C29 6.26801 22.732 0 15 0C7.26801 0 1 6.26801 1 14C1 21.732 7.26801 28 15 28Z" fill="url(#paint0_linear_756_1099)"/>
<path d="M14.5 27C21.9558 27 28 20.9558 28 13.5C28 6.04416 21.9558 0 14.5 0C7.04416 0 1 6.04416 1 13.5C1 20.9558 7.04416 27 14.5 27Z" stroke="black" stroke-opacity="0.097" stroke-width="0.9375"/>
<g filter="url(#filter1_d_756_1099)">
<path d="M14.9981 19.4741L22 15.4839L14.9981 25L8 15.483L14.9981 19.4723V19.4741ZM14.9981 3L21.9953 14.204L14.9981 18.1951L8 14.204L14.9981 3Z" fill="black"/>
</g>
<path d="M15 3V10.9845L22 14L15 3Z" fill="white" fill-opacity="0.602"/>
<path d="M15 3L8 14L15 10.9845V3Z" fill="white"/>
<path d="M15 19.1931V25L22 15L15 19.1931Z" fill="white" fill-opacity="0.602"/>
<path d="M15 25V19.1921L8 15L15 25Z" fill="white"/>
<path d="M15 18L22 14.0432L15 11V18Z" fill="white" fill-opacity="0.2"/>
<path d="M8 14.0432L15 18V11L8 14.0432Z" fill="white" fill-opacity="0.602"/>
</g>
</g>
<defs>
<filter id="filter0_d_756_1099" x="0.0625" y="-0.46875" width="29.875" height="29.875" filterUnits="userSpaceOnUse" color-interpolation-filters="sRGB">
<feFlood flood-opacity="0" result="BackgroundImageFix"/>
<feColorMatrix in="SourceAlpha" type="matrix" values="0 0 0 0 0 0 0 0 0 0 0 0 0 0 0 0 0 0 127 0" result="hardAlpha"/>
<feOffset dy="0.46875"/>
<feGaussianBlur stdDeviation="0.46875"/>
<feComposite in2="hardAlpha" operator="out"/>
<feColorMatrix type="matrix" values="0 0 0 0 0 0 0 0 0 0 0 0 0 0 0 0 0 0 0.199474 0"/>
<feBlend mode="normal" in2="BackgroundImageFix" result="effect1_dropShadow_756_1099"/>
<feBlend mode="normal" in="SourceGraphic" in2="effect1_dropShadow_756_1099" result="shape"/>
</filter>
<filter id="filter1_d_756_1099" x="7.0625" y="2.53125" width="15.875" height="23.875" filterUnits="userSpaceOnUse" color-interpolation-filters="sRGB">
<feFlood flood-opacity="0" result="BackgroundImageFix"/>
<feColorMatrix in="SourceAlpha" type="matrix" values="0 0 0 0 0 0 0 0 0 0 0 0 0 0 0 0 0 0 127 0" result="hardAlpha"/>
<feOffset dy="0.46875"/>
<feGaussianBlur stdDeviation="0.46875"/>
<feComposite in2="hardAlpha" operator="out"/>
<feColorMatrix type="matrix" values="0 0 0 0 0 0 0 0 0 0 0 0 0 0 0 0 0 0 0.204257 0"/>
<feBlend mode="normal" in2="BackgroundImageFix" result="effect1_dropShadow_756_1099"/>
<feBlend mode="normal" in="SourceGraphic" in2="effect1_dropShadow_756_1099" result="shape"/>
</filter>
<linearGradient id="paint0_linear_756_1099" x1="1401" y1="0" x2="1401" y2="2800" gradientUnits="userSpaceOnUse">
<stop stop-color="white" stop-opacity="0.5"/>
<stop offset="1" stop-opacity="0.5"/>
</linearGradient>
<clipPath id="clip0_756_1099">
<rect width="30" height="30" fill="white"/>
</clipPath>
<clipPath id="clip1_756_1099">
<rect width="30" height="30" fill="white"/>
</clipPath>
</defs>
</svg>
