<svg width="18" height="18" viewBox="0 0 18 18" fill="none" xmlns="http://www.w3.org/2000/svg">
<g clip-path="url(#clip0_756_756)">
<mask id="mask0_756_756" style="mask-type:luminance" maskUnits="userSpaceOnUse" x="0" y="0" width="18" height="18">
<path d="M18 0H0V18H18V0Z" fill="white"/>
</mask>
<g mask="url(#mask0_756_756)">
<path d="M9 0C4.02946 0 0 4.02946 0 8.99999C0 13.9705 4.02946 18 9 18C13.9705 18 18 13.9705 18 8.99999C18 4.02946 13.9705 0 9 0ZM14.5779 6.6199L15.159 4.74108C15.9421 5.8761 16.3945 7.20628 16.4657 8.58336L14.8617 7.45336C14.5965 7.26638 14.4819 6.92989 14.5779 6.6199ZM10.9445 1.76366H10.9385L9.44084 2.85397C9.17832 3.04481 8.82273 3.04481 8.56021 2.85397L7.06252 1.76366C8.33253 1.41124 9.67452 1.41124 10.9445 1.76366ZM2.83606 4.74181L3.41717 6.6199C3.51314 6.92989 3.39854 7.26638 3.13338 7.45336L1.52936 8.58336C1.60065 7.20653 2.05305 5.87655 2.83606 4.74181ZM3.01207 13.4688L5.06914 13.4755C5.39388 13.4762 5.68118 13.6861 5.78055 13.9952L6.42756 16.0118C5.0676 15.5113 3.88144 14.6282 3.01207 13.4688ZM11.5683 16.0118L12.2145 13.9952C12.3138 13.6863 12.6007 13.4765 12.9252 13.4755L14.983 13.4688C14.1141 14.6283 12.9281 15.5115 11.5683 16.0118ZM15.8637 11.9681L12.9207 11.9779C11.9463 11.9791 11.0845 12.61 10.7888 13.5384L9.86393 16.4215C9.28861 16.4944 8.70641 16.4944 8.13112 16.4215L7.20629 13.5377C6.91023 12.6092 6.04806 11.9788 5.0736 11.9779L2.13139 11.9689C1.90494 11.4464 1.73938 10.8996 1.63789 10.3394L3.99601 8.67772C4.7931 8.11827 5.13756 7.10796 4.84817 6.17808L3.99826 3.42833C4.42776 3.03803 4.90121 2.69902 5.40907 2.41814L7.67655 4.06557C8.4636 4.63977 9.5314 4.63977 10.3185 4.06557L12.586 2.41814C13.0937 2.6992 13.5672 3.03818 13.9968 3.42833L13.1468 6.17808C12.8575 7.10793 13.2019 8.11823 13.9991 8.67772L16.3571 10.3394C16.2558 10.8994 16.0901 11.446 15.8637 11.9681Z" fill="white"/>
<path d="M11.6624 7.048L10.2269 6.00561C9.57156 5.5271 8.68208 5.5271 8.0268 6.00561L6.59126 7.048C5.93215 7.52423 5.65713 8.37232 5.9113 9.14474L6.45945 10.8319C6.70998 11.6026 7.42901 12.1238 8.23944 12.1222H10.0142C10.8254 12.1222 11.5444 11.5997 11.795 10.8282L12.3424 9.14098C12.595 8.36969 12.3201 7.52355 11.6624 7.048ZM10.918 8.6782L10.3706 10.3653C10.3206 10.5199 10.1766 10.6245 10.0142 10.6244H8.23941C8.07723 10.6242 7.93367 10.5196 7.88372 10.3653L7.3356 8.67747C7.28515 8.52291 7.34024 8.35347 7.4719 8.2581L8.9067 7.21722C9.03798 7.12182 9.21577 7.12182 9.34701 7.21722L10.7825 8.25961C10.9135 8.35509 10.9683 8.52403 10.918 8.6782Z" fill="white"/>
</g>
</g>
<defs>
<clipPath id="clip0_756_756">
<rect width="18" height="18" fill="white"/>
</clipPath>
</defs>
</svg>
