<svg width="105" height="40" viewBox="0 0 105 40" fill="none" xmlns="http://www.w3.org/2000/svg">
<path fill-rule="evenodd" clip-rule="evenodd" d="M10.3846 7H5L8.23074 13.4641H5.30767L6.84602 17.4862H10.2306L11.6153 20.2155H8.23074L10.077 24.2375H13.7692L18.2306 33L22.3846 24.2375L25.7692 24.0938L27.9231 20.0718H24.5383L25.7692 17.4862H28.9999L31 13.3204H27.7693L30.8462 7H25.3077L18.0768 22.2264L10.3846 7Z" fill="#22C99D"/>
<path d="M46.8043 14.3213H49.7184L44.9027 26.6787H41.8157L37 14.3213H39.9141L43.3715 23.7129L46.8043 14.3213Z" fill="white"/>
<path d="M60.7045 14.3213H63.3717V26.6787H60.7045V24.8992C59.7003 26.2997 58.2597 27 56.3828 27C54.687 27 53.2382 26.3739 52.0363 25.1217C50.8344 23.853 50.2335 22.3124 50.2335 20.5C50.2335 18.6711 50.8344 17.1305 52.0363 15.8783C53.2382 14.6261 54.687 14 56.3828 14C58.2597 14 59.7003 14.692 60.7045 16.076V14.3213ZM54.012 23.3422C54.7528 24.0837 55.6831 24.4544 56.8026 24.4544C57.9221 24.4544 58.8524 24.0837 59.5932 23.3422C60.3341 22.5843 60.7045 21.6369 60.7045 20.5C60.7045 19.3631 60.3341 18.424 59.5932 17.6825C58.8524 16.9246 57.9221 16.5456 56.8026 16.5456C55.6831 16.5456 54.7528 16.9246 54.012 17.6825C53.2711 18.424 52.9007 19.3631 52.9007 20.5C52.9007 21.6369 53.2711 22.5843 54.012 23.3422Z" fill="white"/>
<path d="M74.8524 14.3213H77.7665L72.9508 26.6787H69.8638L65.0481 14.3213H67.9622L71.4197 23.7129L74.8524 14.3213Z" fill="white"/>
<path d="M81.0723 21.6369C81.2698 22.576 81.7226 23.301 82.4305 23.8118C83.1385 24.3061 84.0028 24.5532 85.0236 24.5532C86.4395 24.5532 87.5014 24.0425 88.2094 23.0209L90.4073 24.3061C89.189 26.102 87.3862 27 84.9989 27C82.9903 27 81.3686 26.3904 80.1338 25.1711C78.899 23.9354 78.2816 22.3783 78.2816 20.5C78.2816 18.6546 78.8908 17.1141 80.1091 15.8783C81.3275 14.6261 82.8915 14 84.8013 14C86.6124 14 88.0941 14.6343 89.2466 15.903C90.4155 17.1717 91 18.7123 91 20.5247C91 20.8048 90.9671 21.1755 90.9012 21.6369H81.0723ZM81.0476 19.462H88.3082C88.127 18.4569 87.7072 17.699 87.0487 17.1882C86.4066 16.6774 85.6492 16.4221 84.7766 16.4221C83.7888 16.4221 82.9656 16.6939 82.3071 17.2376C81.6485 17.7814 81.2287 18.5228 81.0476 19.462Z" fill="white"/>
</svg>
