<svg width="30" height="30" viewBox="0 0 30 30" fill="none" xmlns="http://www.w3.org/2000/svg">
<g clip-path="url(#clip0_756_1131)">
<g clip-path="url(#clip1_756_1131)">
<g filter="url(#filter0_d_756_1131)">
<path d="M15 28C22.732 28 29 21.732 29 14C29 6.26801 22.732 0 15 0C7.26801 0 1 6.26801 1 14C1 21.732 7.26801 28 15 28Z" fill="black"/>
</g>
<path d="M15 28C22.732 28 29 21.732 29 14C29 6.26801 22.732 0 15 0C7.26801 0 1 6.26801 1 14C1 21.732 7.26801 28 15 28Z" fill="#BFBBBB"/>
<path style="mix-blend-mode:soft-light" d="M15 28C22.732 28 29 21.732 29 14C29 6.26801 22.732 0 15 0C7.26801 0 1 6.26801 1 14C1 21.732 7.26801 28 15 28Z" fill="url(#paint0_linear_756_1131)"/>
<path d="M14.5 27C21.9558 27 28 20.9558 28 13.5C28 6.04416 21.9558 0 14.5 0C7.04416 0 1 6.04416 1 13.5C1 20.9558 7.04416 27 14.5 27Z" stroke="black" stroke-opacity="0.097" stroke-width="0.9375"/>
<g filter="url(#filter1_d_756_1131)">
<path d="M9.32507 17.5131L8 18.0325L8.63886 15.4459L9.97971 14.9022L11.9121 7H16.6747L15.2642 12.8088L16.5735 12.2734L15.9421 14.8516L14.617 15.3869L13.8296 18.6522H21L20.1894 22H8.234L9.32507 17.5131Z" fill="black"/>
</g>
<path d="M9.32507 17.5131L8 18.0325L8.63886 15.4459L9.97971 14.9022L11.9121 7H16.6747L15.2642 12.8088L16.5735 12.2734L15.9421 14.8516L14.617 15.3869L13.8296 18.6522H21L20.1894 22H8.234L9.32507 17.5131Z" fill="white"/>
</g>
</g>
<defs>
<filter id="filter0_d_756_1131" x="0.0625" y="-0.46875" width="29.875" height="29.875" filterUnits="userSpaceOnUse" color-interpolation-filters="sRGB">
<feFlood flood-opacity="0" result="BackgroundImageFix"/>
<feColorMatrix in="SourceAlpha" type="matrix" values="0 0 0 0 0 0 0 0 0 0 0 0 0 0 0 0 0 0 127 0" result="hardAlpha"/>
<feOffset dy="0.46875"/>
<feGaussianBlur stdDeviation="0.46875"/>
<feComposite in2="hardAlpha" operator="out"/>
<feColorMatrix type="matrix" values="0 0 0 0 0 0 0 0 0 0 0 0 0 0 0 0 0 0 0.199474 0"/>
<feBlend mode="normal" in2="BackgroundImageFix" result="effect1_dropShadow_756_1131"/>
<feBlend mode="normal" in="SourceGraphic" in2="effect1_dropShadow_756_1131" result="shape"/>
</filter>
<filter id="filter1_d_756_1131" x="7.0625" y="6.53125" width="14.875" height="16.875" filterUnits="userSpaceOnUse" color-interpolation-filters="sRGB">
<feFlood flood-opacity="0" result="BackgroundImageFix"/>
<feColorMatrix in="SourceAlpha" type="matrix" values="0 0 0 0 0 0 0 0 0 0 0 0 0 0 0 0 0 0 127 0" result="hardAlpha"/>
<feOffset dy="0.46875"/>
<feGaussianBlur stdDeviation="0.46875"/>
<feColorMatrix type="matrix" values="0 0 0 0 0 0 0 0 0 0 0 0 0 0 0 0 0 0 0.204257 0"/>
<feBlend mode="normal" in2="BackgroundImageFix" result="effect1_dropShadow_756_1131"/>
<feBlend mode="normal" in="SourceGraphic" in2="effect1_dropShadow_756_1131" result="shape"/>
</filter>
<linearGradient id="paint0_linear_756_1131" x1="1401" y1="0" x2="1401" y2="2800" gradientUnits="userSpaceOnUse">
<stop stop-color="white" stop-opacity="0.5"/>
<stop offset="1" stop-opacity="0.5"/>
</linearGradient>
<clipPath id="clip0_756_1131">
<rect width="30" height="30" fill="white"/>
</clipPath>
<clipPath id="clip1_756_1131">
<rect width="30" height="30" fill="white"/>
</clipPath>
</defs>
</svg>
