<svg width="24" height="24" viewBox="0 0 24 24" fill="none" xmlns="http://www.w3.org/2000/svg">
<path fill-rule="evenodd" clip-rule="evenodd" d="M10.486 3.12653L8.0815 7.32751C8.047 7.38801 7.98747 7.4305 7.91847 7.444L3.1465 8.40851C2.53 8.53351 2.02949 8.979 1.83549 9.57401C1.64049 10.171 1.78398 10.826 2.21098 11.288L5.49498 14.8415C5.54098 14.8915 5.56348 14.959 5.55598 15.0265L5.00798 19.816C4.93698 20.4375 5.2065 21.05 5.7155 21.4185C6.222 21.7845 6.88749 21.8525 7.45799 21.5955L11.898 19.5955C11.963 19.5665 12.037 19.5665 12.102 19.5955L16.542 21.5955C17.1125 21.8525 17.778 21.7845 18.2845 21.4185C18.7935 21.05 19.063 20.4375 18.992 19.816L18.444 15.0265C18.4365 14.959 18.459 14.8915 18.505 14.8415C19.1545 14.139 20.6975 12.4695 21.789 11.288C22.216 10.826 22.3595 10.171 22.1645 9.57401C21.9705 8.979 21.47 8.53351 20.8535 8.40851L16.0815 7.444C16.0125 7.4305 15.953 7.38801 15.9185 7.32751L13.514 3.12653C13.2045 2.58503 12.6265 2.25 12 2.25C11.3735 2.25 10.7955 2.58503 10.486 3.12653Z" fill="#2BC69D"/>
</svg>
