<svg width="18" height="18" viewBox="0 0 18 18" fill="none" xmlns="http://www.w3.org/2000/svg">
<g clip-path="url(#clip0_756_764)">
<mask id="mask0_756_764" style="mask-type:luminance" maskUnits="userSpaceOnUse" x="0" y="0" width="18" height="18">
<path d="M18 0H0V18H18V0Z" fill="white"/>
</mask>
<g mask="url(#mask0_756_764)">
<path d="M15.3638 2.63713C14.1054 1.37992 12.5026 0.524019 10.7578 0.177607C9.01311 -0.168806 7.20485 0.00982631 5.56162 0.690925C3.9184 1.37201 2.514 2.525 1.52593 4.00412C0.537863 5.48323 0.010498 7.22209 0.010498 9.00087C0.010498 10.7797 0.537863 12.5185 1.52593 13.9976C2.514 15.4768 3.9184 16.6298 5.56162 17.3109C7.20485 17.9919 9.01311 18.1706 10.7578 17.8241C12.5026 17.4777 14.1054 16.6218 15.3638 15.3646C17.0492 13.6755 17.9956 11.387 17.9956 9.00087C17.9956 6.61482 17.0492 4.3262 15.3638 2.63713ZM16.4506 8.19987C15.5512 8.30898 14.6387 8.21206 13.7824 7.91645C12.9259 7.62086 12.1481 7.13431 11.5074 6.49365C10.8669 5.853 10.3804 5.07502 10.0849 4.21859C9.78942 3.36217 9.6926 2.44974 9.8018 1.55038C11.5042 1.72934 13.0933 2.48745 14.3036 3.69786C15.5139 4.90826 16.2718 6.49756 16.4506 8.19987ZM1.54956 9.80187C2.44894 9.69277 3.36135 9.78969 4.21774 10.0853C5.07413 10.3809 5.85205 10.8674 6.49264 11.5081C7.13323 12.1488 7.61968 12.9267 7.91519 13.7832C8.2107 14.6396 8.30751 15.552 8.19831 16.4514C6.49601 16.2724 4.9068 15.5144 3.69653 14.3039C2.48626 13.0935 1.72833 11.5042 1.54956 9.80187ZM14.3033 14.3018C13.0712 15.5367 11.4452 16.3007 9.70806 16.4612C9.81569 15.3611 9.67812 14.2509 9.30529 13.2104C8.93244 12.1698 8.33359 11.225 7.55181 10.4436C6.77003 9.66221 5.82477 9.06387 4.78406 8.69161C3.74334 8.31934 2.63303 8.18239 1.53305 8.29063C1.69619 6.55384 2.46088 4.9286 3.69499 3.69572C4.9291 2.46283 6.55511 1.69977 8.29206 1.53838C8.1912 2.57829 8.30903 3.6278 8.63798 4.61946C8.96694 5.61111 9.49974 6.52298 10.2021 7.29643C10.9045 8.06989 11.761 8.68783 12.7165 9.11054C13.6719 9.53325 14.7052 9.75136 15.75 9.75088C15.9878 9.75088 16.2263 9.73887 16.4648 9.71637C16.3019 11.4511 15.5373 13.074 14.3033 14.3041V14.3018Z" fill="white"/>
</g>
</g>
<defs>
<clipPath id="clip0_756_764">
<rect width="18" height="18" fill="white"/>
</clipPath>
</defs>
</svg>
