<svg width="18" height="19" viewBox="0 0 18 19" fill="none" xmlns="http://www.w3.org/2000/svg">
<g clip-path="url(#clip0_756_787)">
<mask id="mask0_756_787" style="mask-type:luminance" maskUnits="userSpaceOnUse" x="0" y="1" width="18" height="19">
<path d="M18 1.0625H0V19.0625H18V1.0625Z" fill="white"/>
</mask>
<g mask="url(#mask0_756_787)">
<path d="M8.50004 1C3.80562 1 0 4.80561 0 9.50004C0 14.1945 3.80562 18 8.50004 18C13.1945 18 17 14.1945 17 9.50004C17 4.80561 13.1945 1 8.50004 1ZM15.4818 8.4276V8.42972C14.8402 8.8292 14.1386 9.12316 13.4039 9.30033C13.2515 7.03495 12.5027 4.85021 11.2334 2.96766C13.5022 3.9255 15.1109 5.99292 15.4818 8.4276ZM8.49772 2.41606C8.67664 2.41606 8.85135 2.42948 9.02746 2.44294C10.7919 4.38047 11.8402 6.86349 11.9979 9.47929C11.0314 9.51233 10.0685 9.34624 9.16891 8.99129C9.02811 6.59984 7.88577 4.37852 6.02239 2.87292C6.8132 2.57266 7.65181 2.41787 8.49772 2.41606ZM4.59868 3.59362C5.26308 4.02687 5.84997 4.56861 6.33495 5.19621C4.21502 6.6178 2.56408 8.63596 1.5908 10.9956C0.96121 8.14322 2.15793 5.1983 4.59868 3.59362ZM2.38432 13.0282C3.09033 10.3277 4.75443 7.97611 7.06628 6.41196C7.4849 7.27202 7.72386 8.20837 7.76857 9.16384C5.83847 10.6305 4.62543 12.8508 4.43391 15.2673C3.59756 14.6772 2.89841 13.9133 2.38432 13.0282ZM8.49772 16.5608C7.58273 16.5606 6.67655 16.3819 5.83001 16.0346C5.81443 15.1224 5.97582 14.2157 6.30528 13.3649C8.62993 14.3968 11.2115 14.7046 13.7137 14.2482C12.3789 15.72 10.4846 16.5599 8.49772 16.5608ZM6.9418 12.0982C7.39011 11.4033 7.95725 10.7929 8.61726 10.2947C9.617 10.699 10.6847 10.9085 11.763 10.9121C13.075 10.912 14.3694 10.6095 15.5454 10.0281C15.4791 10.8925 15.2531 11.7371 14.8785 12.5189C12.267 13.3267 9.45319 13.1775 6.9418 12.0982Z" fill="white"/>
</g>
</g>
<defs>
<clipPath id="clip0_756_787">
<rect width="18" height="18" fill="white" transform="translate(0 0.5)"/>
</clipPath>
</defs>
</svg>
